<?xml version="1.0" encoding="utf-8"?>
<svg xmlns="http://www.w3.org/2000/svg" viewBox="0 0 48 48" width="144" height="144">
  <path d="M17.5 4C11.986 4 7.5 8.486 7.5 14C7.5 19.514 11.986 24 17.5 24C24.567 24 32.747797 15.394344 33.091797 15.027344C33.634797 14.450344 33.634797 13.549656 33.091797 12.972656C32.747797 12.605656 24.567 4 17.5 4 z M 35 24C28.925 24 24 28.925 24 35C24 41.075 28.925 46 35 46C41.075 46 46 41.075 46 35C46 28.925 41.075 24 35 24 z M 6.7226562 28C4.6706562 28 3 29.784516 3 31.978516L3 33.5C3 36.781 4.6953906 39.632344 7.7753906 41.527344C10.366391 43.122344 13.82 44 17.5 44C20.05 44 22.482516 43.568297 24.603516 42.779297C22.976516 40.608297 22 37.922 22 35C22 32.42 22.760641 30.022 24.056641 28L6.7226562 28 z M 41 30C41.25575 30 41.511531 30.097469 41.707031 30.292969C42.098031 30.683969 42.098031 31.316031 41.707031 31.707031L33.707031 39.707031C33.512031 39.902031 33.256 40 33 40C32.744 40 32.487969 39.902031 32.292969 39.707031L28.292969 35.707031C27.901969 35.316031 27.901969 34.683969 28.292969 34.292969C28.683969 33.901969 29.316031 33.901969 29.707031 34.292969L33 37.585938L40.292969 30.292969C40.488469 30.097469 40.74425 30 41 30 z" fill="#D8C6AD" />
</svg>